Coordinates
version=1
nRows=6
nColumns=63
inDegrees=yes

Units are S.I. units (second, meters, Newtons, ...)
If the header above contains a line with 'inDegrees', this indicates whether rotational values are in degrees (yes) or radians (no).

endheader
time	pelvis_tilt	pelvis_list	pelvis_rotation	pelvis_tx	pelvis_ty	pelvis_tz	hip_flexion_r	hip_adduction_r	hip_rotation_r	knee_angle_r	knee_angle_r_beta	ankle_angle_r	subtalar_angle_r	mtp_angle_r	hip_flexion_l	hip_adduction_l	hip_rotation_l	knee_angle_l	knee_angle_l_beta	ankle_angle_l	subtalar_angle_l	mtp_angle_l	L5_S1_Flex_Ext	L5_S1_Lat_Bending	L5_S1_axial_rotation	L4_L5_Flex_Ext	L4_L5_Lat_Bending	L4_L5_axial_rotation	L3_L4_Flex_Ext	L3_L4_Lat_Bending	L3_L4_axial_rotation	L2_L3_Flex_Ext	L2_L3_Lat_Bending	L2_L3_axial_rotation	L1_L2_Flex_Ext	L1_L2_Lat_Bending	L1_L2_axial_rotation	L1_T12_Flex_Ext	L1_T12_Lat_Bending	L1_T12_axial_rotation	Abs_r3	Abs_r2	Abs_r1	Abs_t1	Abs_t2	neck_flexion	neck_bending	neck_rotation	arm_flex_r	arm_add_r	arm_rot_r	elbow_flex_r	pro_sup_r	wrist_flex_r	wrist_dev_r	arm_flex_l	arm_add_l	arm_rot_l	elbow_flex_l	pro_sup_l	wrist_flex_l	wrist_dev_l
4.750000	0.411287	17.066538	106.089115	0.076169	1.025326	0.181957	-8.274251	-4.106231	-26.139310	26.001251	0.453807	28.060360	4.883585	0.000000	-2.288493	-0.723752	-0.758795	29.731852	0.518919	28.407410	7.771387	0.000000	-1.411504	-1.259511	-10.818880	-2.621305	-1.675150	-11.495059	-2.318961	-3.062375	-11.495059	-1.613208	-3.062375	-9.466520	-1.310723	-2.568395	-8.790340	-0.806534	-1.950982	-8.114160	-10.082235	-14.247840	-60.171362	0.000000	0.000000	-5.179827	-8.344015	39.030651	83.821992	43.428960	156.212334	0.044224	0.629347	-69.910136	-24.674118	-36.931404	-11.205653	-12.814174	89.253095	90.006563	8.304860	12.952293
4.766667	0.006088	17.767072	105.332829	0.077947	1.025794	0.183187	-8.708565	-4.495935	-25.316407	26.368343	0.460214	28.478579	4.700342	0.000000	-3.307414	-0.495255	-1.734701	29.199610	0.509629	28.977521	8.727098	0.000000	-1.478505	-1.241682	-10.891463	-2.745732	-1.651436	-11.572179	-2.429036	-3.019024	-11.572179	-1.689784	-3.019024	-9.530030	-1.372940	-2.532037	-8.849314	-0.844818	-1.923365	-8.168597	-10.560815	-14.046150	-60.575049	0.000000	0.000000	-4.494737	-9.864206	39.679769	85.159210	45.990552	156.404798	0.043141	0.618581	-69.914648	-24.683741	-36.607253	-12.251722	-12.018038	88.836611	90.175869	7.499113	11.745906
4.783333	-0.313946	18.390955	104.539041	0.079584	1.026086	0.184331	-9.044783	-4.845028	-24.452398	26.713702	0.466242	28.901767	4.586450	0.000000	-4.232559	-0.269827	-2.626484	28.666526	0.500325	29.521490	9.490690	0.000000	-1.541298	-1.217503	-10.918590	-2.862344	-1.619279	-11.601002	-2.532198	-2.960236	-11.601002	-1.761549	-2.960236	-9.553767	-1.431249	-2.482732	-8.871355	-0.880697	-1.885912	-8.188943	-11.009335	-13.772634	-60.725924	0.000000	0.000000	-3.847948	-11.090064	40.270226	86.498222	48.095951	156.393108	0.042142	0.607644	-69.919249	-24.690005	-36.175541	-13.345471	-11.116889	88.435084	90.160834	6.622935	10.534840
4.800000	-0.555682	18.942393	103.705315	0.081128	1.026200	0.185397	-9.293855	-5.150818	-23.554617	27.032346	0.471803	29.328275	4.564686	0.000000	-5.054321	-0.048701	-3.421903	28.175200	0.491750	29.998880	9.975440	0.000000	-1.602417	-1.188880	-10.904896	-2.975848	-1.581210	-11.586452	-2.632611	-2.890643	-11.586452	-1.831402	-2.890643	-9.541784	-1.488004	-2.424364	-8.860228	-0.915621	-1.841575	-8.178672	-11.445904	-13.448847	-60.649759	0.000000	0.000000	-3.179740	-12.070363	40.750339	87.820841	49.781075	156.194176	0.041232	0.599405	-69.923603	-24.694930	-35.668569	-14.478089	-10.124382	88.082850	89.826057	5.724863	9.381198
4.816667	-0.745925	19.402939	102.880307	0.082610	1.026141	0.186350	-9.446969	-5.436684	-22.659664	27.339470	0.477164	29.762641	4.609253	0.000000	-5.761147	0.189476	-4.085575	27.723253	0.483862	30.378147	10.178124	0.000000	-1.658666	-1.161635	-10.868293	-3.080309	-1.544975	-11.547561	-2.725022	-2.824399	-11.547561	-1.895689	-2.824399	-9.509756	-1.540237	-2.368806	-8.830488	-0.947762	-1.799373	-8.151220	-11.847686	-13.140647	-60.446185	0.000000	0.000000	-2.512437	-12.758295	41.170743	89.083163	51.111925	155.872894	0.040462	0.591335	-69.927308	-24.694315	-35.172064	-15.594028	-9.137595	87.807484	89.001475	4.926575	8.347814
4.833333	-0.904868	19.788257	102.072664	0.084085	1.025962	0.187214	-9.529614	-5.709935	-21.789200	27.626373	0.482171	30.201057	4.722523	0.000000	-6.362208	0.442450	-4.630000	27.333336	0.477057	30.657506	10.122609	0.000000	-1.712507	-1.139285	-10.814639	-3.180297	-1.515249	-11.490554	-2.813478	-2.770057	-11.490554	-1.957225	-2.770057	-9.462809	-1.590234	-2.323230	-8.786894	-0.978527	-1.764752	-8.110979	-12.232269	-12.887819	-60.147778	0.000000	0.000000	-1.835636	-13.177591	41.523711	90.252801	52.139994	155.495383	0.039798	0.583839	-69.930274	-24.690658	-34.718667	-16.657790	-8.211141	87.630166	87.829274	4.263785	7.494154
